ply
format ascii 1.0
element vertex 8
property float x
property float y
property float z
property float nx
property float ny
property float nz
property float u
property float v
property float confidence
element face 6
property list uchar int vertex_indices
property float shine
element uniform 1
property float scale
end_header
-1 -1 -1 -1 -1 -1 0    1 0.5
 1 -1 -1  1 -1 -1 0    0 0
 1  1 -1  1  1 -1 0.25 0 1
-1  1 -1 -1  1 -1 0.25 1 0.5
-1 -1  1 -1 -1  1 0.5  1 1
 1 -1  1  1 -1  1 0.5  0 0
 1  1  1  1  1  1 0.75 0 0.8
-1  1  1 -1  1  1 0.75 1 0.2
4 0 1 2 3 0
4 4 7 6 5 0.2
4 3 2 6 7 0.4
4 0 4 5 1 0.6
4 1 5 6 2 0.8
4 0 3 7 4 1.0
0.2
